<?xml version="1.0" encoding="utf-8"?>
<!-- Generator: Adobe Illustrator 18.1.0, SVG Export Plug-In . SVG Version: 6.00 Build 0)  -->
<svg version="1.1" id="Layer_1" xmlns="http://www.w3.org/2000/svg" xmlns:xlink="http://www.w3.org/1999/xlink" x="0px" y="0px"
	 viewBox="0 180 611.9 612" enable-background="new 0 180 611.9 612" xml:space="preserve">
<path fill="#4891dc" d="M456.4,473.3c1.4-8.4,2.6-16.9,2.6-25.6V333c0-84.5-68.5-153-153-153s-153,68.5-153,153v114.8
	c0,8.7,1.2,17.2,2.6,25.6C63,506.2,0,567.8,0,639v114.8C0,774.9,17.1,792,38.2,792h535.5c21.2,0,38.2-17.1,38.2-38.2V639
	C612,567.8,549,506.2,456.4,473.3z M229.5,333c0-42.2,34.3-76.5,76.5-76.5s76.5,34.3,76.5,76.5v114.8c0,42.2-34.3,76.5-76.5,76.5
	s-76.5-34.3-76.5-76.5V333z M535.5,715.5h-459V639c0-41.4,44-77.2,109.5-97.4c28,35.7,71.1,59.2,120,59.2s92-23.4,120-59.2
	c65.5,20.2,109.5,56.1,109.5,97.4V715.5z"/>
</svg>
