<?xml version="1.0" encoding="utf-8"?>
<!-- Generator: Adobe Illustrator 18.1.0, SVG Export Plug-In . SVG Version: 6.00 Build 0)  -->
<svg version="1.1" id="Layer_1" xmlns="http://www.w3.org/2000/svg" xmlns:xlink="http://www.w3.org/1999/xlink" x="0px" y="0px"
	 viewBox="-0.2 270 612 612" enable-background="new -0.2 270 612 612" xml:space="preserve">
<path fill="#FFFFFF" d="M600.6,507.3L374.7,281.4c-8.6-8.6-20.2-12-31.6-11.1h-74.6c-11.4-1-22.9,2.4-31.6,11.1L191,327.3v-57H76.5
	v171.5l-65.4,65.4c-8.6,8.6-12,20.2-11,31.6v75.5c0,21.2,17.1,38.2,38.2,38.2h38.2v191.1c0,21.2,17.1,38.2,38.2,38.2l114.7,0.2
	l0.1-229.7l152.6,0l0.3,229.5h114.6c21.2,0,38.2-17.1,38.2-38.2V652.5h38.2c21.2,0,38.2-17.1,38.2-38.2v-75.5
	C612.6,527.5,609.2,515.9,600.6,507.3z M229.4,805.4 M382.4,805.5"/>
</svg>
