<?xml version="1.0" encoding="utf-8"?>
<!-- Generator: Adobe Illustrator 18.1.0, SVG Export Plug-In . SVG Version: 6.00 Build 0)  -->
<svg version="1.1" id="Layer_1" xmlns="http://www.w3.org/2000/svg" xmlns:xlink="http://www.w3.org/1999/xlink" x="0px" y="0px"
	 viewBox="789.3 481.1 351.6 103.2" enable-background="new 789.3 481.1 351.6 103.2" xml:space="preserve">
<g id="one_green_2">
	<g>
		<path fill="#FFFFFF" d="M946.6,540.3c0.4,1,0.8,2,1.2,3c0.4-1,0.8-2.1,1.3-3.1c0.4-1,0.9-2,1.4-2.9l18.5-34.7
			c0.2-0.4,0.5-0.8,0.7-1c0.2-0.3,0.5-0.4,0.8-0.6c0.3-0.1,0.6-0.2,1-0.2c0.4,0,0.8,0,1.3,0h8.8v62.6h-10.3V523c0-0.7,0-1.6,0.1-2.5
			c0-0.9,0.1-1.8,0.2-2.7l-18.9,35.5c-0.4,0.8-1,1.4-1.7,1.9c-0.7,0.4-1.5,0.7-2.4,0.7h-1.6c-0.9,0-1.7-0.2-2.4-0.7
			c-0.7-0.4-1.3-1.1-1.7-1.9l-19.2-35.6c0.1,1,0.2,1.9,0.2,2.8c0,0.9,0.1,1.8,0.1,2.5v40.4h-10.2v-62.6h8.8c0.5,0,1,0,1.3,0
			c0.4,0,0.7,0.1,1,0.2c0.3,0.1,0.6,0.3,0.8,0.6c0.3,0.3,0.5,0.6,0.7,1l18.7,34.7C945.7,538.4,946.2,539.3,946.6,540.3z"/>
		<path fill="#FFFFFF" d="M992.3,532.8h22.4v8.9h-22.4V532.8z"/>
		<path fill="#FFFFFF" d="M1037.4,541.4v22h-11.6v-62.6h20.4c4.2,0,7.8,0.5,10.9,1.5c3.1,1,5.6,2.4,7.6,4.1c2,1.8,3.5,3.9,4.4,6.3
			c1,2.5,1.4,5.1,1.4,8c0,3-0.5,5.8-1.5,8.3c-1,2.5-2.5,4.7-4.5,6.5c-2,1.8-4.5,3.2-7.6,4.2s-6.6,1.5-10.6,1.5L1037.4,541.4
			L1037.4,541.4z M1037.4,532.3h8.7c2.1,0,4-0.3,5.6-0.8c1.6-0.5,2.9-1.3,3.9-2.3c1-1,1.8-2.2,2.3-3.6c0.5-1.4,0.8-3,0.8-4.8
			c0-1.7-0.3-3.2-0.8-4.5c-0.5-1.4-1.3-2.5-2.3-3.5c-1-1-2.4-1.7-3.9-2.2c-1.6-0.5-3.4-0.8-5.6-0.8h-8.7V532.3z"/>
		<path fill="#FFFFFF" d="M1091.8,506.1c0,0.9-0.2,1.8-0.6,2.6c-0.4,0.8-0.9,1.5-1.5,2.1c-0.6,0.6-1.3,1.1-2.2,1.4
			c-0.8,0.4-1.7,0.5-2.7,0.5c-0.9,0-1.8-0.2-2.6-0.5c-0.8-0.4-1.5-0.8-2.1-1.4c-0.6-0.6-1.1-1.3-1.4-2.1c-0.4-0.8-0.5-1.7-0.5-2.6
			c0-1,0.2-1.8,0.5-2.7c0.4-0.8,0.8-1.6,1.4-2.2c0.6-0.6,1.3-1.1,2.1-1.4c0.8-0.4,1.7-0.5,2.6-0.5c1,0,1.8,0.2,2.7,0.5
			c0.8,0.4,1.6,0.8,2.2,1.4c0.6,0.6,1.1,1.3,1.5,2.2C1091.6,504.2,1091.8,505.1,1091.8,506.1z M1090.2,519v44.4h-10.7V519H1090.2z"
			/>
		<path fill="#FFFFFF" d="M1102.3,563.4V519h6.5c1.4,0,2.3,0.6,2.7,1.9l0.7,3.5c0.9-0.9,1.8-1.8,2.8-2.5c1-0.8,2-1.4,3.2-1.9
			c1.1-0.5,2.3-1,3.6-1.3c1.3-0.3,2.7-0.4,4.2-0.4c2.4,0,4.6,0.4,6.4,1.2c1.9,0.8,3.4,2,4.7,3.5c1.3,1.5,2.2,3.3,2.9,5.3
			c0.6,2.1,1,4.3,1,6.8v28.2h-10.7v-28.2c0-2.7-0.6-4.8-1.9-6.3c-1.3-1.5-3.1-2.2-5.6-2.2c-1.8,0-3.6,0.4-5.2,1.3
			c-1.6,0.8-3.1,2-4.6,3.4v32.1L1102.3,563.4L1102.3,563.4z"/>
	</g>
	<g id="icon_3_">
		<path opacity="0.6" fill="#FFFFFF" enable-background="new    " d="M840.9,481.1c-28.5,0-51.6,23.1-51.6,51.6
			c0,28.5,23.1,51.6,51.6,51.6c28.5,0,51.6-23.1,51.6-51.6C892.5,504.2,869.5,481.1,840.9,481.1z M840.9,575.7
			c-23.8,0-43-19.2-43-43c0-23.8,19.2-43,43-43c23.8,0,43,19.2,43,43C883.9,556.5,864.7,575.7,840.9,575.7z"/>
		<g>
			<g>
				<g>
					<path fill="#FFFFFF" d="M860.3,500.3h-38.6c-1.4,0-2.6,1.1-2.6,2.6v59.8c0,1.4,1.1,2.6,2.6,2.6h38.6c1.4,0,2.6-1.1,2.6-2.6
						v-59.8C862.8,501.4,861.7,500.3,860.3,500.3z M834.5,553.9c0,0.4-0.4,0.8-0.8,0.8h-6.8c-0.4,0-0.8-0.4-0.8-0.8v-6.8
						c0-0.4,0.4-0.8,0.8-0.8h6.8c0.4,0,0.8,0.4,0.8,0.8V553.9z M834.5,543.3c0,0.4-0.4,0.8-0.8,0.8h-6.8c-0.4,0-0.8-0.4-0.8-0.8
						v-6.8c0-0.4,0.4-0.8,0.8-0.8h6.8c0.4,0,0.8,0.4,0.8,0.8V543.3z M834.5,532.7c0,0.4-0.4,0.8-0.8,0.8h-6.8
						c-0.4,0-0.8-0.4-0.8-0.8v-6.8c0-0.4,0.4-0.8,0.8-0.8h6.8c0.4,0,0.8,0.3,0.8,0.8V532.7z M845.1,553.9c0,0.4-0.4,0.8-0.8,0.8
						h-6.8c-0.4,0-0.8-0.4-0.8-0.8v-6.8c0-0.4,0.4-0.8,0.8-0.8h6.8c0.4,0,0.8,0.4,0.8,0.8V553.9z M845.1,543.3
						c0,0.4-0.4,0.8-0.8,0.8h-6.8c-0.4,0-0.8-0.4-0.8-0.8v-6.8c0-0.4,0.4-0.8,0.8-0.8h6.8c0.4,0,0.8,0.4,0.8,0.8V543.3z
						 M845.1,532.7c0,0.4-0.4,0.8-0.8,0.8h-6.8c-0.4,0-0.8-0.4-0.8-0.8v-6.8c0-0.4,0.4-0.8,0.8-0.8h6.8c0.4,0,0.8,0.3,0.8,0.8V532.7
						z M855.7,553.9c0,0.4-0.4,0.8-0.8,0.8h-6.8c-0.4,0-0.8-0.4-0.8-0.8v-6.8c0-0.4,0.4-0.8,0.8-0.8h6.8c0.4,0,0.8,0.4,0.8,0.8
						V553.9z M855.7,543.3c0,0.4-0.4,0.8-0.8,0.8h-6.8c-0.4,0-0.8-0.4-0.8-0.8v-6.8c0-0.4,0.4-0.8,0.8-0.8h6.8
						c0.4,0,0.8,0.4,0.8,0.8V543.3z M855.7,532.7c0,0.4-0.4,0.8-0.8,0.8h-6.8c-0.4,0-0.8-0.4-0.8-0.8v-6.8c0-0.4,0.4-0.8,0.8-0.8
						h6.8c0.4,0,0.8,0.3,0.8,0.8V532.7z M855.7,518.2c0,0.4-0.4,0.8-0.8,0.8h-28c-0.4,0-0.8-0.4-0.8-0.8v-9.1c0-0.4,0.4-0.8,0.8-0.8
						h28c0.4,0,0.8,0.4,0.8,0.8V518.2z"/>
				</g>
			</g>
		</g>
	</g>
</g>
</svg>
