<?xml version="1.0" encoding="utf-8"?>
<!-- Generator: Adobe Illustrator 15.0.2, SVG Export Plug-In  -->
<!DOCTYPE svg PUBLIC "-//W3C//DTD SVG 1.1//EN" "http://www.w3.org/Graphics/SVG/1.1/DTD/svg11.dtd" [
	<!ENTITY ns_flows "http://ns.adobe.com/Flows/1.0/">
]>
<svg version="1.1"
	 xmlns="http://www.w3.org/2000/svg" xmlns:xlink="http://www.w3.org/1999/xlink" xmlns:a="http://ns.adobe.com/AdobeSVGViewerExtensions/3.0/"
	 x="0px" y="0px" width="219px" height="50px" viewBox="-6.594 -5.127 219 50"
	 overflow="visible" enable-background="new -6.594 -5.127 219 50" xml:space="preserve">
<defs>
</defs>
<path display="none" fill="#353535" d="M10.433,0.843v32.096h6.345v8.03H0V0.843H10.433z"/>
<path display="none" fill="#353535" d="M43.15,24.338c0,4.031-0.096,6.885-0.285,8.562c-0.189,1.678-0.784,3.21-1.784,4.598
	c-1.001,1.388-2.351,2.454-4.051,3.197c-1.702,0.744-3.686,1.115-5.948,1.115c-2.148,0-4.079-0.351-5.787-1.053
	c-1.712-0.703-3.088-1.756-4.126-3.161c-1.044-1.404-1.662-2.933-1.86-4.585s-0.298-4.544-0.298-8.674v-6.865
	c0-4.031,0.097-6.886,0.286-8.564c0.189-1.677,0.784-3.209,1.784-4.597s2.351-2.454,4.053-3.197C26.834,0.372,28.816,0,31.082,0
	c2.146,0,4.076,0.352,5.785,1.054c1.712,0.701,3.085,1.755,4.129,3.159c1.038,1.404,1.659,2.933,1.857,4.585
	s0.297,4.544,0.297,8.675V24.338z M32.715,11.153c0-1.868-0.102-3.06-0.309-3.582c-0.207-0.519-0.63-0.78-1.277-0.78
	c-0.542,0-0.962,0.211-1.251,0.631c-0.288,0.422-0.435,1.665-0.435,3.73V29.89c0,2.33,0.097,3.768,0.286,4.312
	c0.189,0.545,0.633,0.818,1.327,0.818c0.711,0,1.163-0.313,1.361-0.942c0.198-0.628,0.297-2.123,0.297-4.486V11.153z"/>
<path display="none" fill="#353535" d="M70.985,15.614H60.55v-3.644c0-2.296-0.1-3.733-0.298-4.312
	c-0.198-0.579-0.668-0.867-1.411-0.867c-0.645,0-1.082,0.248-1.312,0.743c-0.233,0.496-0.35,1.769-0.35,3.817v19.257
	c0,1.801,0.116,2.986,0.35,3.558c0.23,0.568,0.694,0.854,1.389,0.854c0.758,0,1.273-0.322,1.548-0.966
	c0.271-0.645,0.408-1.9,0.408-3.768v-4.758h-2.108v-6.097h12.221v21.538h-6.558l-0.966-2.875c-0.711,1.239-1.606,2.169-2.69,2.788
	c-1.082,0.621-2.359,0.93-3.832,0.93c-1.752,0-3.394-0.426-4.922-1.277c-1.53-0.85-2.691-1.904-3.487-3.16
	c-0.793-1.255-1.288-2.573-1.487-3.952c-0.197-1.381-0.297-3.449-0.297-6.209V15.292c0-3.833,0.207-6.618,0.618-8.353
	c0.414-1.735,1.601-3.325,3.558-4.771C52.881,0.723,55.412,0,58.52,0c3.057,0,5.593,0.628,7.607,1.884
	c2.016,1.255,3.33,2.747,3.939,4.474c0.612,1.726,0.919,4.234,0.919,7.521V15.614z"/>
<path display="none" fill="#353535" d="M98.866,24.338c0,4.031-0.097,6.885-0.286,8.562c-0.189,1.678-0.784,3.21-1.784,4.598
	c-1,1.388-2.351,2.454-4.05,3.197c-1.703,0.744-3.686,1.115-5.949,1.115c-2.148,0-4.078-0.351-5.787-1.053
	c-1.712-0.703-3.088-1.756-4.126-3.161c-1.044-1.404-1.662-2.933-1.86-4.585s-0.297-4.544-0.297-8.674v-6.865
	c0-4.031,0.096-6.886,0.285-8.564c0.189-1.677,0.784-3.209,1.784-4.597c1.001-1.388,2.351-2.454,4.054-3.197
	C82.549,0.372,84.532,0,86.797,0c2.146,0,4.077,0.352,5.785,1.054c1.712,0.701,3.085,1.755,4.129,3.159
	c1.038,1.404,1.659,2.933,1.857,4.585s0.298,4.544,0.298,8.675V24.338z M88.431,11.153c0-1.868-0.103-3.06-0.31-3.582
	c-0.207-0.519-0.63-0.78-1.277-0.78c-0.542,0-0.962,0.211-1.251,0.631c-0.288,0.422-0.435,1.665-0.435,3.73V29.89
	c0,2.33,0.097,3.768,0.286,4.312c0.189,0.545,0.633,0.818,1.327,0.818c0.711,0,1.163-0.313,1.361-0.942
	c0.198-0.628,0.298-2.123,0.298-4.486V11.153z"/>
<path display="none" fill="#353535" d="M135.695,0.843v40.125h-10.433V24.115h-3.126v16.853h-10.433V0.843h10.433v14.35h3.126V0.843
	H135.695z"/>
<path display="none" fill="#353535" d="M139.883,0.843h17.398v8.03h-6.966v7.609h6.52v7.634h-6.52v8.823h7.659v8.03h-18.092V0.843z"
	/>
<path display="none" fill="#353535" d="M160.976,0.843h7.386c4.925,0,8.257,0.189,10.001,0.57c1.743,0.381,3.163,1.35,4.263,2.913
	c1.1,1.56,1.647,4.051,1.647,7.472c0,3.123-0.388,5.221-1.166,6.295c-0.776,1.074-2.304,1.719-4.584,1.933
	c2.064,0.512,3.452,1.198,4.164,2.057c0.711,0.858,1.151,1.647,1.326,2.367c0.172,0.717,0.26,2.697,0.26,5.936v10.583h-9.692V27.634
	c0-2.147-0.169-3.479-0.507-3.99c-0.339-0.512-1.225-0.768-2.665-0.768v18.092h-10.433V0.843z M171.408,7.708v8.922
	c1.175,0,1.997-0.161,2.467-0.484c0.472-0.321,0.705-1.366,0.705-3.135v-2.206c0-1.273-0.225-2.107-0.679-2.503
	C173.446,7.906,172.615,7.708,171.408,7.708z"/>
<path display="none" fill="#353535" d="M188.313,0.843h17.398v8.03h-6.966v7.609h6.521v7.634h-6.521v8.823h7.66v8.03h-18.093V0.843z
	"/>
<path fill="#FFFFFF" d="M10.433,0.843v32.096h6.345v8.03H0V0.843H10.433z"/>
<path fill="#FFFFFF" d="M43.15,24.338c0,4.031-0.096,6.885-0.285,8.562c-0.189,1.678-0.784,3.21-1.784,4.598
	c-1.001,1.388-2.351,2.454-4.051,3.197c-1.702,0.744-3.686,1.115-5.948,1.115c-2.148,0-4.079-0.351-5.787-1.053
	c-1.712-0.703-3.088-1.756-4.126-3.161c-1.044-1.404-1.662-2.933-1.86-4.585s-0.298-4.544-0.298-8.674v-6.865
	c0-4.031,0.097-6.886,0.286-8.564c0.189-1.677,0.784-3.209,1.784-4.597s2.351-2.454,4.053-3.197C26.834,0.372,28.816,0,31.082,0
	c2.146,0,4.076,0.352,5.785,1.054c1.712,0.701,3.085,1.755,4.129,3.159c1.038,1.404,1.659,2.933,1.857,4.585
	s0.297,4.544,0.297,8.675V24.338z M32.715,11.153c0-1.868-0.102-3.06-0.309-3.582c-0.207-0.519-0.63-0.78-1.277-0.78
	c-0.542,0-0.962,0.211-1.251,0.631c-0.288,0.422-0.435,1.665-0.435,3.73V29.89c0,2.33,0.097,3.768,0.286,4.312
	c0.189,0.545,0.633,0.818,1.327,0.818c0.711,0,1.163-0.313,1.361-0.942c0.198-0.628,0.297-2.123,0.297-4.486V11.153z"/>
<path fill="#FFFFFF" d="M70.985,15.614H60.55v-3.644c0-2.296-0.1-3.733-0.298-4.312c-0.198-0.579-0.668-0.867-1.411-0.867
	c-0.645,0-1.082,0.248-1.312,0.743c-0.233,0.496-0.35,1.769-0.35,3.817v19.257c0,1.801,0.116,2.986,0.35,3.558
	c0.23,0.568,0.694,0.854,1.389,0.854c0.758,0,1.273-0.322,1.548-0.966c0.271-0.645,0.408-1.9,0.408-3.768v-4.758h-2.108v-6.097
	h12.221v21.538h-6.558l-0.966-2.875c-0.711,1.239-1.606,2.169-2.69,2.788c-1.082,0.621-2.359,0.93-3.832,0.93
	c-1.752,0-3.394-0.426-4.922-1.277c-1.53-0.85-2.691-1.904-3.487-3.16c-0.793-1.255-1.288-2.573-1.487-3.952
	c-0.197-1.381-0.297-3.449-0.297-6.209V15.292c0-3.833,0.207-6.618,0.618-8.353c0.414-1.735,1.601-3.325,3.558-4.771
	C52.881,0.723,55.412,0,58.52,0c3.057,0,5.593,0.628,7.607,1.884c2.016,1.255,3.33,2.747,3.939,4.474
	c0.612,1.726,0.919,4.234,0.919,7.521V15.614z"/>
<path fill="#FFFFFF" d="M98.866,24.338c0,4.031-0.097,6.885-0.286,8.562c-0.189,1.678-0.784,3.21-1.784,4.598
	c-1,1.388-2.351,2.454-4.05,3.197c-1.703,0.744-3.686,1.115-5.949,1.115c-2.148,0-4.078-0.351-5.787-1.053
	c-1.712-0.703-3.088-1.756-4.126-3.161c-1.044-1.404-1.662-2.933-1.86-4.585s-0.297-4.544-0.297-8.674v-6.865
	c0-4.031,0.096-6.886,0.285-8.564c0.189-1.677,0.784-3.209,1.784-4.597c1.001-1.388,2.351-2.454,4.054-3.197
	C82.549,0.372,84.532,0,86.797,0c2.146,0,4.077,0.352,5.785,1.054c1.712,0.701,3.085,1.755,4.129,3.159
	c1.038,1.404,1.659,2.933,1.857,4.585s0.298,4.544,0.298,8.675V24.338z M88.431,11.153c0-1.868-0.103-3.06-0.31-3.582
	c-0.207-0.519-0.63-0.78-1.277-0.78c-0.542,0-0.962,0.211-1.251,0.631c-0.288,0.422-0.435,1.665-0.435,3.73V29.89
	c0,2.33,0.097,3.768,0.286,4.312c0.189,0.545,0.633,0.818,1.327,0.818c0.711,0,1.163-0.313,1.361-0.942
	c0.198-0.628,0.298-2.123,0.298-4.486V11.153z"/>
<path fill="#FFFFFF" d="M135.695,0.843v40.125h-10.433V24.115h-3.126v16.853h-10.433V0.843h10.433v14.35h3.126V0.843H135.695z"/>
<path fill="#FFFFFF" d="M139.883,0.843h17.398v8.03h-6.966v7.609h6.52v7.634h-6.52v8.823h7.659v8.03h-18.092V0.843z"/>
<path fill="#FFFFFF" d="M160.976,0.843h7.386c4.925,0,8.257,0.189,10.001,0.57c1.743,0.381,3.163,1.35,4.263,2.913
	c1.1,1.56,1.647,4.051,1.647,7.472c0,3.123-0.388,5.221-1.166,6.295c-0.776,1.074-2.304,1.719-4.584,1.933
	c2.064,0.512,3.452,1.198,4.164,2.057c0.711,0.858,1.151,1.647,1.326,2.367c0.172,0.717,0.26,2.697,0.26,5.936v10.583h-9.692V27.634
	c0-2.147-0.169-3.479-0.507-3.99c-0.339-0.512-1.225-0.768-2.665-0.768v18.092h-10.433V0.843z M171.408,7.708v8.922
	c1.175,0,1.997-0.161,2.467-0.484c0.472-0.321,0.705-1.366,0.705-3.135v-2.206c0-1.273-0.225-2.107-0.679-2.503
	C173.446,7.906,172.615,7.708,171.408,7.708z"/>
<path fill="#FFFFFF" d="M188.313,0.843h17.398v8.03h-6.966v7.609h6.521v7.634h-6.521v8.823h7.66v8.03h-18.093V0.843z"/>
</svg>
