<?xml version="1.0" encoding="utf-8"?>
<!-- Generator: Adobe Illustrator 18.1.0, SVG Export Plug-In . SVG Version: 6.00 Build 0)  -->
<svg version="1.1" id="Layer_1" xmlns="http://www.w3.org/2000/svg" xmlns:xlink="http://www.w3.org/1999/xlink" x="0px" y="0px"
	 viewBox="0 269.9 612 612.1" enable-background="new 0 269.9 612 612.1" xml:space="preserve">
<path fill="#36424a" d="M456.5,563.3c1.4-8.4,2.6-16.9,2.6-25.6V423c0-84.5-68.5-153-153-153s-153,68.5-153,153v114.8
	c0,8.7,1.2,17.2,2.6,25.6C63,596.2,0,657.8,0,729v114.8C0,864.9,17.1,882,38.2,882h535.6c21.2,0,38.2-17.1,38.2-38.2V729
	C612.1,657.8,549.1,596.2,456.5,563.3z M229.5,423c0-42.2,34.3-76.5,76.5-76.5s76.5,34.3,76.5,76.5v114.8
	c0,42.2-34.3,76.5-76.5,76.5s-76.5-34.3-76.5-76.5V423z M535.6,805.5H76.5V729c0-41.4,44-77.2,109.5-97.4
	c28,35.7,71.1,59.2,120,59.2s92-23.4,120-59.2c65.5,20.2,109.5,56.1,109.5,97.4V805.5z"/>
</svg>
